<?xml version="1.0" encoding="utf-8"?>
<!-- Generator: Adobe Illustrator 18.0.0, SVG Export Plug-In . SVG Version: 6.00 Build 0)  -->
<!DOCTYPE svg PUBLIC "-//W3C//DTD SVG 1.1//EN" "http://www.w3.org/Graphics/SVG/1.1/DTD/svg11.dtd">
<svg version="1.1" id="Calque_1" xmlns="http://www.w3.org/2000/svg" xmlns:xlink="http://www.w3.org/1999/xlink" x="0px" y="0px"
	 viewBox="0 0 612 792" enable-background="new 0 0 612 792" xml:space="preserve">
<rect x="0.6" y="109.3" fill="#FFFFFF" width="610.8" height="573.6"/>
<radialGradient id="SVGID_1_" cx="-456.4938" cy="34.2166" r="766.7756" fx="-32.9027" fy="-69.7983" gradientTransform="matrix(0.7829 0 0 -0.7829 0 728.6972)" gradientUnits="userSpaceOnUse">
	<stop  offset="8.743170e-002" style="stop-color:#C4EEFF"/>
	<stop  offset="0.1535" style="stop-color:#B2E8FC"/>
	<stop  offset="0.2855" style="stop-color:#84DAF5"/>
	<stop  offset="0.4692" style="stop-color:#3BC3EA"/>
	<stop  offset="0.6057" style="stop-color:#00B0E1"/>
	<stop  offset="0.6511" style="stop-color:#00ACDE"/>
	<stop  offset="0.6997" style="stop-color:#009FD3"/>
	<stop  offset="0.7497" style="stop-color:#0089C2"/>
	<stop  offset="0.8001" style="stop-color:#006CAB"/>
	<stop  offset="0.9269" style="stop-color:#112835"/>
</radialGradient>
<path fill="url(#SVGID_1_)" d="M145.7,451.5c-4.5-13.7-9.2-27.3-13.1-41.3c-4-14.8-7.4-29.7-11.7-44.3
	c-14.6,27.5-19.1,50.1-19.1,50.1c-3.2,9.6-6.3,28.3-0.7,54.5c11.4,47.8,55.4,53.1,55.4,53.1l1-3.2c-5.5-7.3-8.9-17-10.6-24.4
	C146.9,495.9,140.9,476.9,145.7,451.5z"/>
<radialGradient id="SVGID_2_" cx="-1541.5739" cy="217.1951" r="2373.6819" fx="-230.2767" fy="-104.8006" gradientTransform="matrix(0.7783 -8.471075e-002 -8.471075e-002 -0.7783 -105.4154 606.9533)" gradientUnits="userSpaceOnUse">
	<stop  offset="8.743170e-002" style="stop-color:#C4EEFF"/>
	<stop  offset="0.1535" style="stop-color:#B2E8FC"/>
	<stop  offset="0.2855" style="stop-color:#84DAF5"/>
	<stop  offset="0.4692" style="stop-color:#3BC3EA"/>
	<stop  offset="0.6057" style="stop-color:#00B0E1"/>
	<stop  offset="0.6511" style="stop-color:#00ACDE"/>
	<stop  offset="0.6997" style="stop-color:#009FD3"/>
	<stop  offset="0.7497" style="stop-color:#0089C2"/>
	<stop  offset="0.8001" style="stop-color:#006CAB"/>
	<stop  offset="0.9269" style="stop-color:#112835"/>
</radialGradient>
<path fill="url(#SVGID_2_)" d="M443.3,213.6c-28.6-21.9-56.8-20.2-65.7-18.9c0,0-58.2-0.1-130.6,43.7c0,0-3,2.1-7.4,5.2
	c14.4-2.3,29.1-3.4,43.3-4.9c26.1-2.8,52.2-5.5,78.2-9.2c21.2-3,44-9.3,65.5-7.9c9.1,0.6,13.6,14.5,15,23.9c8.4,2.9,15,6.8,15,6.8
	C458.1,243.8,455.6,223.5,443.3,213.6z"/>
<radialGradient id="SVGID_3_" cx="7262.085" cy="23993.5313" r="863.9439" fx="7407.7598" fy="24028.4609" gradientTransform="matrix(-0.3006 0 1.330945e-003 -2.935909e-002 2466.5483 1334.032)" gradientUnits="userSpaceOnUse">
	<stop  offset="0" style="stop-color:#A9AFB3"/>
	<stop  offset="4.395600e-002" style="stop-color:#ABB1B5"/>
	<stop  offset="9.313813e-002" style="stop-color:#B3B8BC"/>
	<stop  offset="0.2527" style="stop-color:#C9CCCF"/>
	<stop  offset="0.396" style="stop-color:#DCDEE0"/>
	<stop  offset="0.5926" style="stop-color:#F0F0F1"/>
	<stop  offset="0.7928" style="stop-color:#FBFBFC"/>
	<stop  offset="1" style="stop-color:#FFFFFF"/>
</radialGradient>
<path fill="url(#SVGID_3_)" d="M574.8,629.6c0.6-14-114.9-25.4-258.1-25.4S56.9,615.6,56.2,629.6c-0.6,14,114.9,25.4,258.1,25.3
	C457.5,654.9,574.1,643.6,574.8,629.6z"/>
<radialGradient id="SVGID_4_" cx="-456.4915" cy="34.2216" r="766.7682" fx="-32.9045" fy="-69.7922" gradientTransform="matrix(0.7829 0 0 -0.7829 0 728.6972)" gradientUnits="userSpaceOnUse">
	<stop  offset="8.743170e-002" style="stop-color:#8BA8B4"/>
	<stop  offset="0.176" style="stop-color:#79A2B0"/>
	<stop  offset="0.3529" style="stop-color:#4B91A6"/>
	<stop  offset="0.5998" style="stop-color:#027796"/>
	<stop  offset="0.6057" style="stop-color:#007696"/>
	<stop  offset="0.6615" style="stop-color:#007293"/>
	<stop  offset="0.7212" style="stop-color:#006589"/>
	<stop  offset="0.7825" style="stop-color:#005078"/>
	<stop  offset="0.8001" style="stop-color:#004872"/>
	<stop  offset="0.9269" style="stop-color:#0B1B23"/>
</radialGradient>
<path fill="url(#SVGID_4_)" d="M145.5,452.3c-3.8-5.1-4.8-10.8-6.2-17c-2-8.5-5.1-16.8-7.5-25.3c-3.9-13.5-9.4-28.5-11.7-42.8
	c-4.5,8.6-8.1,16.8-10.7,23.8l38.1,107.9c-0.3-1-0.5-2-0.8-3.1C146.9,495.9,141.1,477.4,145.5,452.3z"/>
<polygon points="435.3,216.4 83.1,255.7 177,587.1 518.9,436.4 "/>
<linearGradient id="SVGID_5_" gradientUnits="userSpaceOnUse" x1="490.1938" y1="468.3448" x2="686.2297" y2="543.5961" gradientTransform="matrix(0.7829 0 0 -0.7829 0 728.6972)">
	<stop  offset="0" style="stop-color:#FFFFFF"/>
	<stop  offset="9.340660e-002" style="stop-color:#D0D7DB"/>
	<stop  offset="0.304" style="stop-color:#ECEFF0"/>
	<stop  offset="0.4837" style="stop-color:#FFFFFF"/>
	<stop  offset="0.5033" style="stop-color:#F7F8F9"/>
	<stop  offset="0.533" style="stop-color:#E3E6E9"/>
	<stop  offset="0.569" style="stop-color:#C1C8CE"/>
	<stop  offset="0.6096" style="stop-color:#929EA9"/>
	<stop  offset="0.6399" style="stop-color:#6A7B8A"/>
	<stop  offset="0.8465" style="stop-color:#42464A"/>
</linearGradient>
<path fill="url(#SVGID_5_)" d="M434.2,218.1c1.6,4.1,2.4,7.7,2.8,10.7c0.4,3.1,0.4,5.6,0.2,7.8c-0.2,2.1-0.6,3.7-1,4.7
	s-0.7,1.6-0.7,1.6l-43.2,92.7L498.1,408c0,0,0.7,0.4,1.8,1.3c1.2,0.9,2.7,2.3,4.6,4.5s4,4.9,6.1,8.5c2.1,3.5,4.3,7.9,6.3,13.2
	L434.2,218.1z"/>
<linearGradient id="SVGID_6_" gradientUnits="userSpaceOnUse" x1="370.7169" y1="451.1768" x2="68.4412" y2="364.5008" gradientTransform="matrix(0.7829 0 0 -0.7829 0 728.6972)">
	<stop  offset="0" style="stop-color:#FFFFFF"/>
	<stop  offset="8.062120e-002" style="stop-color:#B9C0C4"/>
	<stop  offset="0.1017" style="stop-color:#BFC6C9"/>
	<stop  offset="0.2095" style="stop-color:#DBDFE1"/>
	<stop  offset="0.3179" style="stop-color:#EFF1F2"/>
	<stop  offset="0.4266" style="stop-color:#FBFBFC"/>
	<stop  offset="0.5359" style="stop-color:#FFFFFF"/>
	<stop  offset="0.5558" style="stop-color:#F7F8F9"/>
	<stop  offset="0.586" style="stop-color:#E3E6E9"/>
	<stop  offset="0.6226" style="stop-color:#C1C8CE"/>
	<stop  offset="0.6638" style="stop-color:#929EA9"/>
	<stop  offset="0.6947" style="stop-color:#6A7B8A"/>
	<stop  offset="0.7961" style="stop-color:#42464A"/>
</linearGradient>
<path fill="url(#SVGID_6_)" d="M112.3,290.5c0,0-1.2-0.5-3-1.6c-1.8-1.2-4.4-2.9-7.1-5.5c-2.7-2.5-5.7-5.8-8.5-10
	c-2.7-4.1-5.2-9.2-6.8-15.1l70.6,249.4c1.3,0.1,2.6,0.9,3.1,2.5c0.5,2,1.4,4,1.8,6c0.2,0.5,0.2,1.2,0.3,1.7c0.1,0.3,0.2,0.6,0.2,0.9
	c0,0.1,0.1,0.2,0.1,0.2c1.2,1.7,0.5,3.8-0.9,4.9l16.7,59c-2.3-8.1-3.3-15.5-3.4-21.9s0.4-12,1.3-16.4c0.9-4.5,2-8,3-10.3
	c0.9-2.3,1.6-3.6,1.6-3.6L261,368.3L112.3,290.5z"/>
<linearGradient id="SVGID_7_" gradientUnits="userSpaceOnUse" x1="427.3054" y1="354.6552" x2="275.3121" y2="1069.7274" gradientTransform="matrix(0.7829 0 0 -0.7829 0 728.6972)">
	<stop  offset="0" style="stop-color:#CBCED1"/>
	<stop  offset="2.253847e-002" style="stop-color:#C3C6C9"/>
	<stop  offset="5.800513e-002" style="stop-color:#ADB0B2"/>
	<stop  offset="0.102" style="stop-color:#898B8D"/>
	<stop  offset="0.1527" style="stop-color:#58595A"/>
	<stop  offset="0.2085" style="stop-color:#19191A"/>
	<stop  offset="0.229" style="stop-color:#000000"/>
	<stop  offset="0.2396" style="stop-color:#202021"/>
	<stop  offset="0.2587" style="stop-color:#535556"/>
	<stop  offset="0.2773" style="stop-color:#7E8082"/>
	<stop  offset="0.2952" style="stop-color:#9FA2A4"/>
	<stop  offset="0.3121" style="stop-color:#B7BABD"/>
	<stop  offset="0.3275" style="stop-color:#C5C9CC"/>
	<stop  offset="0.3402" style="stop-color:#CACED1"/>
	<stop  offset="0.5431" style="stop-color:#DBDCDC"/>
	<stop  offset="1" style="stop-color:#FFFFFF"/>
</linearGradient>
<path fill="url(#SVGID_7_)" d="M256.5,363.1l-77.9,164.2c0,0-0.7,1.3-1.6,3.6c-0.9,2.3-2.1,5.9-3,10.3c-0.9,4.5-1.5,10.1-1.3,16.6
	s3.9,17.1,6.2,25.2L376,493.9l6.3-2.7l133.3-58.6c-2-5.3-3.5-9.2-5.6-12.8c-2.1-3.6-4.2-6.3-6.1-8.5c-1.9-2.1-3.4-3.6-4.6-4.5
	s-1.8-1.3-1.8-1.3l-106-74.5l-28.7,61.5c0,0-0.2,0.6-0.8,1.6c-0.5,0.9-1.3,2.3-2.4,3.6c-1.1,1.4-2.5,2.9-4.1,4.2
	c-1.7,1.3-3.8,2.5-6.1,3.3c-1.2,0.4-2.4,0.6-3.8,0.8c-1.3,0.2-2.8,0.2-4.3-0.1c-1.6-0.2-3.1-0.5-4.9-1.1s-3.5-1.3-5.5-2.3
	l-71.2-37.4L256.5,363.1z"/>
<linearGradient id="SVGID_8_" gradientUnits="userSpaceOnUse" x1="361.633" y1="466.4368" x2="492.6866" y2="172.0854" gradientTransform="matrix(0.7829 0 0 -0.7829 0 728.6972)">
	<stop  offset="0" style="stop-color:#C7CBD1"/>
	<stop  offset="0.1392" style="stop-color:#DDDFE3"/>
	<stop  offset="0.3319" style="stop-color:#F6F6F7"/>
	<stop  offset="0.4493" style="stop-color:#FFFFFF"/>
	<stop  offset="0.5471" style="stop-color:#FFFFFF"/>
	<stop  offset="0.5634" style="stop-color:#FBFBFC"/>
	<stop  offset="0.5807" style="stop-color:#EEF0F2"/>
	<stop  offset="0.5985" style="stop-color:#D9DDE1"/>
	<stop  offset="0.6167" style="stop-color:#BBC3C9"/>
	<stop  offset="0.635" style="stop-color:#95A1AC"/>
	<stop  offset="0.6521" style="stop-color:#6A7B8A"/>
	<stop  offset="0.7442" style="stop-color:#42464A"/>
</linearGradient>
<path fill="url(#SVGID_8_)" d="M506.6,435.8c2.8-1.6,5.9-2.7,8.8-4c-1.6-3.8-3.3-6.9-4.9-9.6c-2.1-3.5-4.2-6.3-6.1-8.5
	c-1.9-2.1-3.4-3.5-4.6-4.5c-1.2-0.9-1.8-1.3-1.8-1.3l-105.8-72.4l-28.1,60.1c0,0-0.2,0.6-0.8,1.6c-0.5,0.9-1.3,2.2-2.4,3.6
	s-2.5,2.9-4.1,4.2c-1.7,1.3-3.8,2.5-6.1,3.3c-1.2,0.4-2.4,0.6-3.8,0.8c-1.3,0.2-2.8,0.2-4.3-0.1c-1.6-0.2-3.1-0.5-4.9-1.1
	c-1.7-0.5-3.5-1.3-5.5-2.3l-71.1-37.2l-79.7,162.3c0,0-0.7,1.3-1.6,3.6c-0.9,2.3-2.1,5.8-3,10.3s-1.5,10-1.3,16.4
	c0.2,6.5,1.2,13.9,3.4,21.9l198.5-86.7l6.3-2.7l121.7-53.2C504.5,438.9,504.7,436.9,506.6,435.8z"/>
<linearGradient id="SVGID_9_" gradientUnits="userSpaceOnUse" x1="406.653" y1="325.8927" x2="104.3664" y2="239.2134" gradientTransform="matrix(0.7829 0 0 -0.7829 0 728.6972)">
	<stop  offset="8.062120e-002" style="stop-color:#1F2021"/>
	<stop  offset="8.294718e-002" style="stop-color:#202122"/>
	<stop  offset="0.1575" style="stop-color:#4C4D4D"/>
	<stop  offset="0.233" style="stop-color:#707171"/>
	<stop  offset="0.3085" style="stop-color:#8C8C8D"/>
	<stop  offset="0.3841" style="stop-color:#A0A0A0"/>
	<stop  offset="0.4598" style="stop-color:#ACACAC"/>
	<stop  offset="0.5359" style="stop-color:#B0B0B0"/>
	<stop  offset="0.5549" style="stop-color:#A8A9A9"/>
	<stop  offset="0.5838" style="stop-color:#949495"/>
	<stop  offset="0.6188" style="stop-color:#727374"/>
	<stop  offset="0.6582" style="stop-color:#434547"/>
	<stop  offset="0.6947" style="stop-color:#111417"/>
	<stop  offset="0.7961" style="stop-color:#0B0C0D"/>
</linearGradient>
<path fill="url(#SVGID_9_)" d="M175.7,524.7c4.6,0,4.3,2.6,5.8-1.3c1.7-4.6,6.3-10.7,6.9-15.5c0-0.2,0.1-0.4,0.2-0.6
	c-12.1,1.6-22.4,1.3-31,0l4.5,15.8C166.5,523.8,171.1,524.7,175.7,524.7z"/>
<linearGradient id="SVGID_10_" gradientUnits="userSpaceOnUse" x1="232.4607" y1="445.3637" x2="382.6919" y2="107.9387" gradientTransform="matrix(0.7829 0 0 -0.7829 0 728.6972)">
	<stop  offset="0" style="stop-color:#F9FDFF"/>
	<stop  offset="0.5218" style="stop-color:#FFFFFF"/>
	<stop  offset="0.5465" style="stop-color:#FBFBFC"/>
	<stop  offset="0.5727" style="stop-color:#EEF0F2"/>
	<stop  offset="0.5997" style="stop-color:#D9DDE1"/>
	<stop  offset="0.6272" style="stop-color:#BBC3C9"/>
	<stop  offset="0.6548" style="stop-color:#95A1AC"/>
	<stop  offset="0.6807" style="stop-color:#6A7B8A"/>
	<stop  offset="0.7442" style="stop-color:#42464A"/>
</linearGradient>
<path fill="url(#SVGID_10_)" d="M191.7,546.7C196.3,536,251,420.9,273,374.6l-11.9-6.2l-79.7,162.3c0,0-0.7,1.3-1.6,3.6
	c-0.9,2.3-2.1,5.8-3,10.3s-1.5,10-1.3,16.4c0.2,6.5,1.2,13.9,3.4,21.9l13.8-6C190.4,568,188.2,554.8,191.7,546.7z"/>
<linearGradient id="SVGID_11_" gradientUnits="userSpaceOnUse" x1="229.6217" y1="312.6412" x2="77.601" y2="1027.8424" gradientTransform="matrix(0.7829 0 0 -0.7829 0 728.6972)">
	<stop  offset="0" style="stop-color:#737375"/>
	<stop  offset="3.413890e-002" style="stop-color:#6B6B6D"/>
	<stop  offset="8.782132e-002" style="stop-color:#555556"/>
	<stop  offset="0.1543" style="stop-color:#313132"/>
	<stop  offset="0.229" style="stop-color:#000000"/>
	<stop  offset="0.2522" style="stop-color:#262627"/>
	<stop  offset="0.2771" style="stop-color:#474748"/>
	<stop  offset="0.3007" style="stop-color:#5F5F61"/>
	<stop  offset="0.3224" style="stop-color:#6E6E70"/>
	<stop  offset="0.3402" style="stop-color:#737375"/>
	<stop  offset="0.5431" style="stop-color:#7D7D7D"/>
	<stop  offset="1" style="stop-color:#FFFFFF"/>
</linearGradient>
<path fill="url(#SVGID_11_)" d="M193.3,506.6c-1.8,0.3-3.6,0.6-5.3,0.8l-8.4,17.6c0.7,0.1,1.4,0.2,2.1,0.3c1.6,0.2,4.1,1,5.7,0.4
	c0.2-0.1,1.2-3.8,1.3-4.1c1.6-4.2,3.3-8.5,5.3-12.6C193.7,508.2,193.5,507.4,193.3,506.6z"/>
<linearGradient id="SVGID_12_" gradientUnits="userSpaceOnUse" x1="530.5388" y1="541.6367" x2="661.5911" y2="247.2885" gradientTransform="matrix(0.7829 0 0 -0.7829 0 728.6972)">
	<stop  offset="0" style="stop-color:#F9FDFF"/>
	<stop  offset="0.5218" style="stop-color:#FFFFFF"/>
	<stop  offset="0.5465" style="stop-color:#FBFBFC"/>
	<stop  offset="0.5727" style="stop-color:#EEF0F2"/>
	<stop  offset="0.5997" style="stop-color:#D9DDE1"/>
	<stop  offset="0.6272" style="stop-color:#BBC3C9"/>
	<stop  offset="0.6548" style="stop-color:#95A1AC"/>
	<stop  offset="0.6807" style="stop-color:#6A7B8A"/>
	<stop  offset="0.7442" style="stop-color:#42464A"/>
</linearGradient>
<path fill="url(#SVGID_12_)" d="M510.7,434.4c1.6-0.6,3.4,0.5,4.1,1.9l2.1-0.9c-2-5.3-4.2-9.6-6.3-13.2c-2.1-3.5-4.2-6.3-6.1-8.5
	c-1.9-2.1-3.4-3.5-4.6-4.5c-1.2-0.9-1.8-1.3-1.8-1.3l-105.8-72.3l-3.4,7.3c0.4,0.2,0.9,0.5,1.3,0.7c36.8,23.9,108,73.1,108,73.1
	s6,5.7,11,18.4C509.7,434.9,510.1,434.6,510.7,434.4z"/>
<linearGradient id="SVGID_13_" gradientUnits="userSpaceOnUse" x1="238.5577" y1="446.8086" x2="388.1383" y2="110.845" gradientTransform="matrix(0.7829 0 0 -0.7829 0 728.6972)">
	<stop  offset="3.375480e-002" style="stop-color:#B0B8BF"/>
	<stop  offset="0.317" style="stop-color:#E3E6E8"/>
	<stop  offset="0.4993" style="stop-color:#FFFFFF"/>
	<stop  offset="0.5217" style="stop-color:#FBFBFC"/>
	<stop  offset="0.5455" style="stop-color:#EEF0F2"/>
	<stop  offset="0.5699" style="stop-color:#D9DEE2"/>
	<stop  offset="0.5949" style="stop-color:#BBC4CC"/>
	<stop  offset="0.6202" style="stop-color:#94A3B0"/>
	<stop  offset="0.6454" style="stop-color:#667B8D"/>
	<stop  offset="0.6474" style="stop-color:#62788A"/>
	<stop  offset="0.7442" style="stop-color:#42464A"/>
</linearGradient>
<path fill="url(#SVGID_13_)" d="M201.7,560.5c-0.4-3.4-0.4-6.4-0.2-9c0.2-2.5,0.5-4.6,0.9-6.2c0.4-1.6,0.8-2.7,1-3.3l0.9-1.3
	l-0.2-0.1l76-162.4l-15.7-8.2L185,532.7c0,0.1-0.7,1.3-1.5,3.4c-0.9,2.2-1.9,5.5-2.6,9.6c-0.8,4.1-1.3,9.3-1,15.3
	c0.2,6,1.2,12.8,3.3,20.2l20.7-9.1C202.7,567.8,202,564,201.7,560.5z"/>
<linearGradient id="SVGID_14_" gradientUnits="userSpaceOnUse" x1="179.4655" y1="421.7291" x2="329.6669" y2="84.3712" gradientTransform="matrix(0.7829 0 0 -0.7829 0 728.6972)">
	<stop  offset="0" style="stop-color:#5A5B5C"/>
	<stop  offset="7.355994e-002" style="stop-color:#636364"/>
	<stop  offset="0.1912" style="stop-color:#7A7B7B"/>
	<stop  offset="0.3382" style="stop-color:#A0A0A1"/>
	<stop  offset="0.5074" style="stop-color:#D4D4D4"/>
	<stop  offset="0.5218" style="stop-color:#D9D9D9"/>
	<stop  offset="0.5429" style="stop-color:#D5D5D5"/>
	<stop  offset="0.5654" style="stop-color:#C8C8C8"/>
	<stop  offset="0.5885" style="stop-color:#B3B3B4"/>
	<stop  offset="0.6121" style="stop-color:#959697"/>
	<stop  offset="0.636" style="stop-color:#6E7071"/>
	<stop  offset="0.6598" style="stop-color:#404245"/>
	<stop  offset="0.6807" style="stop-color:#111417"/>
	<stop  offset="0.7442" style="stop-color:#0B0C0D"/>
</linearGradient>
<path fill="url(#SVGID_14_)" d="M192.7,518.8c0.9-2,3.6-7,7-12.1c0-0.5,0-0.9,0.1-1.3c-2.3,0.5-4.5,0.9-6.6,1.3l-8.5,17.4
	C191.2,524.5,189.9,524.7,192.7,518.8z"/>
<linearGradient id="SVGID_15_" gradientUnits="userSpaceOnUse" x1="479.5494" y1="496.0842" x2="675.5764" y2="571.3318" gradientTransform="matrix(0.7829 0 0 -0.7829 0 728.6972)">
	<stop  offset="9.340660e-002" style="stop-color:#525557"/>
	<stop  offset="0.2277" style="stop-color:#7D7F80"/>
	<stop  offset="0.399" style="stop-color:#AFAFB0"/>
	<stop  offset="0.4837" style="stop-color:#C2C2C2"/>
	<stop  offset="0.5015" style="stop-color:#BABBBB"/>
	<stop  offset="0.5285" style="stop-color:#A6A6A7"/>
	<stop  offset="0.5612" style="stop-color:#848587"/>
	<stop  offset="0.5985" style="stop-color:#545759"/>
	<stop  offset="0.639" style="stop-color:#181C20"/>
	<stop  offset="0.6399" style="stop-color:#171B1F"/>
	<stop  offset="0.8465" style="stop-color:#0B0C0D"/>
</linearGradient>
<path fill="url(#SVGID_15_)" d="M446.4,250.2c-0.5,14.6-5.4,26.1-5.4,26.1c-3.1-5.6-13.2-14.2-13.2-14.2
	c-0.6,32.3-6.7,63.3-12.7,86.2c1.3,1.1,2.3,2.7,2.4,4.5l31.8,21.8c18.6-6.3,31.4-12.8,38-16.7L446.4,250.2z"/>
<linearGradient id="SVGID_16_" gradientUnits="userSpaceOnUse" x1="323.9233" y1="449.6453" x2="454.9802" y2="155.2869" gradientTransform="matrix(0.7829 0 0 -0.7829 0 728.6972)">
	<stop  offset="0" style="stop-color:#252526"/>
	<stop  offset="5.403139e-002" style="stop-color:#39393A"/>
	<stop  offset="0.3268" style="stop-color:#9B9B9B"/>
	<stop  offset="0.4493" style="stop-color:#C2C2C2"/>
	<stop  offset="0.5471" style="stop-color:#000000"/>
	<stop  offset="0.5906" style="stop-color:#030404"/>
	<stop  offset="0.6368" style="stop-color:#0D0F11"/>
	<stop  offset="0.6521" style="stop-color:#111417"/>
	<stop  offset="0.7442" style="stop-color:#0B0C0D"/>
</linearGradient>
<path fill="url(#SVGID_16_)" d="M258.9,454.4l16,15c0,0-22.9,18.1-51.9,29.3c-0.1,0.2-0.2,0.4-0.2,0.6c-2.6,4.6-6.1,8.6-8.8,13.2
	c-2.2,3.8-4.1,7.6-5.8,11.5c28.7-7,56.1-19.3,81-35.4c27.1-17.5,56.4-32.5,82.9-51.1c4.9-17.4,6.8-28.7,6.8-28.7
	C327.9,441,258.9,454.4,258.9,454.4z"/>
<linearGradient id="SVGID_17_" gradientUnits="userSpaceOnUse" x1="525.6746" y1="539.4744" x2="656.7285" y2="245.1224" gradientTransform="matrix(0.7829 0 0 -0.7829 0 728.6972)">
	<stop  offset="1.506690e-002" style="stop-color:#B0B8BF"/>
	<stop  offset="0.3417" style="stop-color:#E3E6E8"/>
	<stop  offset="0.552" style="stop-color:#FFFFFF"/>
	<stop  offset="0.5658" style="stop-color:#FBFBFC"/>
	<stop  offset="0.5805" style="stop-color:#EEF0F2"/>
	<stop  offset="0.5956" style="stop-color:#D9DEE2"/>
	<stop  offset="0.611" style="stop-color:#BBC4CC"/>
	<stop  offset="0.6266" style="stop-color:#94A3B0"/>
	<stop  offset="0.6422" style="stop-color:#667B8D"/>
	<stop  offset="0.6434" style="stop-color:#62788A"/>
	<stop  offset="0.7442" style="stop-color:#42464A"/>
</linearGradient>
<path fill="url(#SVGID_17_)" d="M494.3,423.6c0.3,0.2,0.9,0.7,1.6,1.4c0.7,0.7,1.6,1.7,2.6,3.1c1,1.3,2,3.1,3.2,5.1
	c1.1,2,2.3,4.5,3.4,7.4l9.9-4.4c-1.9-4.9-3.8-8.9-5.9-12.2c-2-3.3-3.9-5.9-5.6-7.9s-3.2-3.4-4.3-4.2c-1.1-0.9-1.7-1.3-1.7-1.3
	l-0.1-0.1l-106.3-72.6l-5.8,12.3L494.3,423.6z"/>
<linearGradient id="SVGID_18_" gradientUnits="userSpaceOnUse" x1="621.981" y1="87.0686" x2="469.9748" y2="802.2016" gradientTransform="matrix(0.7829 0 0 -0.7829 0 728.6972)">
	<stop  offset="0" style="stop-color:#2D2D2E"/>
	<stop  offset="6.661196e-002" style="stop-color:#252526"/>
	<stop  offset="0.1711" style="stop-color:#0F0F0F"/>
	<stop  offset="0.229" style="stop-color:#000000"/>
	<stop  offset="0.2314" style="stop-color:#020202"/>
	<stop  offset="0.272" style="stop-color:#19191A"/>
	<stop  offset="0.3094" style="stop-color:#282829"/>
	<stop  offset="0.3402" style="stop-color:#2D2D2E"/>
	<stop  offset="0.5431" style="stop-color:#393939"/>
	<stop  offset="1" style="stop-color:#FFFFFF"/>
</linearGradient>
<path fill="url(#SVGID_18_)" d="M416.6,353.4c3.4,2.5,8,3.7,10.8,6.9c0.5-0.9,1.2-1.8,1.9-2.7l-13.9-9.8c-0.3,1.3-0.6,2.4-0.9,3.6
	C415.3,352,416,352.7,416.6,353.4z"/>
<linearGradient id="SVGID_19_" gradientUnits="userSpaceOnUse" x1="431.9655" y1="-87.5911" x2="341.7188" y2="577.528" gradientTransform="matrix(0.7829 0 0 -0.7829 0 728.6972)">
	<stop  offset="0" style="stop-color:#FFFFFF"/>
	<stop  offset="0.4569" style="stop-color:#DBDCDC"/>
	<stop  offset="0.6877" style="stop-color:#DEE2E6"/>
	<stop  offset="0.8477" style="stop-color:#8E9296"/>
	<stop  offset="1" style="stop-color:#3F4347"/>
</linearGradient>
<path fill="url(#SVGID_19_)" d="M439,233c-0.5-3.1-3.2-10.7-4.8-15l-0.7,0.1c0.1,1.5-0.6,3.1-2.3,3.8c-7.1,2.8-15.1,1.4-22.6,2.3
	c-8.4,1-16.8,2.3-25.2,3.1c-14.6,1.1-29,3-43.6,4.5c-0.3,0.2-0.6,0.3-1.1,0.4c-20.1,3.8-41.1,4.1-61.5,6.3c-9.8,1-19.6,2.3-29.4,2.8
	c-3.6,0.2-7,0.9-10,0.1l-150,17.8c1.8,6.1,4.1,15.2,6.8,19.4c2.7,4.3,5.4,7.4,8.1,10s5.2,4.5,7.1,5.6c1.8,1.2,3,1.7,3,1.7
	l219.8,112.4c0,0,21.8,12.1,34-11.8l70.9-149.1c0,0,0.3-0.5,0.6-1.6c0.3-1.1,1.1-3.3,1.3-5.4C439.5,238.4,439.4,236.2,439,233z"/>
<linearGradient id="SVGID_20_" gradientUnits="userSpaceOnUse" x1="369.8761" y1="333.2793" x2="312.9788" y2="796.6713" gradientTransform="matrix(0.7829 0 0 -0.7829 0 728.6972)">
	<stop  offset="0" style="stop-color:#D7DADE"/>
	<stop  offset="0.3274" style="stop-color:#F1F2F3"/>
	<stop  offset="0.5753" style="stop-color:#FFFFFF"/>
	<stop  offset="0.5866" style="stop-color:#FBFCFC"/>
	<stop  offset="0.5968" style="stop-color:#F0F2F4"/>
	<stop  offset="0.6066" style="stop-color:#DEE2E5"/>
	<stop  offset="0.6161" style="stop-color:#C4CBD1"/>
	<stop  offset="0.6255" style="stop-color:#A3ADB6"/>
	<stop  offset="0.6346" style="stop-color:#7A8997"/>
	<stop  offset="0.6378" style="stop-color:#6A7B8A"/>
	<stop  offset="0.7304" style="stop-color:#42464A"/>
</linearGradient>
<path fill="url(#SVGID_20_)" d="M437.1,228.9c-0.4-3.1-1.3-6.7-2.8-10.7l-2.2,0.2c0,0.2,0,0.3-0.1,0.5c-0.5,1.8-2.3,2.9-4.1,2.5
	c-0.2,0.1-0.5,0.2-0.7,0.2c-0.6,0.2-1.3,0.2-2,0.3c-1.5,0.2-2.8-1-3.3-2.3l-310.2,35.9c-0.1,1.7-1.2,3.4-3.4,3.5
	c-2.1,0.1-4.1,0.6-6.3,0.9c-2,0.2-4,0.4-6,0.8c-2.3,0.5-3.9-1.1-4.3-2.9l-4.7,0.5c1.7,6,4.1,11,6.8,15.1c2.7,4.1,5.7,7.4,8.5,10
	c2.7,2.5,5.2,4.3,7.1,5.5c1.8,1.2,3,1.6,3,1.6l148.8,77.8l71.1,37.2c1.9,1,3.8,1.8,5.5,2.3s3.4,0.9,4.9,1.1c1.6,0.2,3,0.2,4.3,0.1
	c1.3-0.2,2.6-0.4,3.8-0.8c2.3-0.8,4.4-2,6.1-3.3s3.1-2.8,4.1-4.2c1.1-1.4,1.9-2.7,2.4-3.6s0.8-1.6,0.8-1.6l28.1-60.1l43.4-92.6
	c0,0,0.3-0.5,0.7-1.6c0.4-1,0.8-2.6,1-4.7C437.5,234.5,437.5,231.9,437.1,228.9z"/>
<linearGradient id="SVGID_21_" gradientUnits="userSpaceOnUse" x1="494.946" y1="525.7964" x2="626.0123" y2="231.4162" gradientTransform="matrix(0.7829 0 0 -0.7829 0 728.6972)">
	<stop  offset="0" style="stop-color:#2C2D2E"/>
	<stop  offset="8.818958e-002" style="stop-color:#505152"/>
	<stop  offset="0.3374" style="stop-color:#B2B2B2"/>
	<stop  offset="0.4493" style="stop-color:#D9D9D9"/>
	<stop  offset="0.5471" style="stop-color:#FFFFFF"/>
	<stop  offset="0.5598" style="stop-color:#FBFBFB"/>
	<stop  offset="0.5734" style="stop-color:#EEEEEE"/>
	<stop  offset="0.5873" style="stop-color:#D9D9DA"/>
	<stop  offset="0.6015" style="stop-color:#BBBCBC"/>
	<stop  offset="0.616" style="stop-color:#949697"/>
	<stop  offset="0.6306" style="stop-color:#656769"/>
	<stop  offset="0.6451" style="stop-color:#2F3134"/>
	<stop  offset="0.6521" style="stop-color:#111417"/>
	<stop  offset="0.7442" style="stop-color:#0B0C0D"/>
</linearGradient>
<path fill="url(#SVGID_21_)" d="M427,378.1c-5.1-3.6-10.6-6.8-15.5-10.9c-0.5-0.2-1-0.5-1.5-0.8c-3.8,12.3-6.7,19.6-6.7,19.6
	c9.9-1.6,18.9-3.7,27.2-5.8C429.3,379.7,428.2,379,427,378.1z"/>
<linearGradient id="SVGID_22_" gradientUnits="userSpaceOnUse" x1="184.1685" y1="422.5973" x2="333.7541" y2="86.6225" gradientTransform="matrix(0.7829 0 0 -0.7829 0 728.6972)">
	<stop  offset="3.375480e-002" style="stop-color:#1E1F20"/>
	<stop  offset="0.211" style="stop-color:#636465"/>
	<stop  offset="0.4077" style="stop-color:#ABABAB"/>
	<stop  offset="0.4993" style="stop-color:#C7C7C7"/>
	<stop  offset="0.52" style="stop-color:#C3C3C3"/>
	<stop  offset="0.542" style="stop-color:#B6B6B6"/>
	<stop  offset="0.5647" style="stop-color:#A1A1A2"/>
	<stop  offset="0.5877" style="stop-color:#838485"/>
	<stop  offset="0.6111" style="stop-color:#5C5E60"/>
	<stop  offset="0.6345" style="stop-color:#2E3133"/>
	<stop  offset="0.6474" style="stop-color:#111417"/>
	<stop  offset="0.7442" style="stop-color:#0B0C0D"/>
</linearGradient>
<path fill="url(#SVGID_22_)" d="M201.4,551.5c0.2-2.5,0.5-4.6,0.9-6.2c0.4-1.6,0.8-2.7,1-3.3l0.9-1.3l-0.2-0.1l19.8-42.4
	c-4.8,1.9-9.8,3.6-14.9,5c-3.8,1-7.4,1.9-10.8,2.5L185,532.6c0,0.1-0.7,1.3-1.5,3.4c-0.9,2.2-1.9,5.5-2.6,9.6
	c-0.5,3.1-0.9,6.7-1.1,10.7c6.9,1.4,14.2,2.6,21.7,3.4C201.3,556.7,201.3,553.9,201.4,551.5z"/>
<linearGradient id="SVGID_23_" gradientUnits="userSpaceOnUse" x1="369.8685" y1="333.2784" x2="312.9711" y2="796.6704" gradientTransform="matrix(0.7829 0 0 -0.7829 0 728.6972)">
	<stop  offset="2.596240e-003" style="stop-color:#F7FAFF"/>
	<stop  offset="0.5514" style="stop-color:#FFFFFF"/>
	<stop  offset="0.5687" style="stop-color:#FBFCFC"/>
	<stop  offset="0.5843" style="stop-color:#F0F2F4"/>
	<stop  offset="0.5994" style="stop-color:#DEE2E5"/>
	<stop  offset="0.614" style="stop-color:#C4CBD1"/>
	<stop  offset="0.6283" style="stop-color:#A3ADB6"/>
	<stop  offset="0.6423" style="stop-color:#7A8997"/>
	<stop  offset="0.6472" style="stop-color:#6A7B8A"/>
	<stop  offset="0.7304" style="stop-color:#42464A"/>
</linearGradient>
<path fill="url(#SVGID_23_)" d="M437.1,228.9c-0.4-3.1-1.3-6.7-2.8-10.7l-2.3,0.2c0.3,1.6-0.5,2.8-1.6,3.6
	c0.6,5.2,0.5,11.7-2.1,18.2c-5.6,14.3-74.4,153.8-74.4,153.8s-2.6,10.3-16.4,2.6c-13.9-7.7-220.9-115.9-220.9-115.9
	s-7.7-7.7-12.5-21.2c-3,0.5-6,1.1-9,1.3c-2.1,0.1-3.2-1.3-3.4-2.9l-4.7,0.5c1.7,6,4.1,11,6.8,15.1c2.7,4.1,5.7,7.4,8.5,10
	c2.7,2.5,5.2,4.3,7.1,5.5c1.8,1.2,3,1.6,3,1.6l148.8,77.8l71.1,37.2c1.9,1,3.8,1.8,5.5,2.3s3.4,0.9,4.9,1.1c1.6,0.2,3,0.2,4.3,0.1
	c1.3-0.2,2.6-0.4,3.8-0.8c2.3-0.8,4.4-2,6.1-3.3s3.1-2.8,4.1-4.2c1.1-1.4,1.9-2.7,2.4-3.6s0.8-1.6,0.8-1.6l28.1-60.1l43.4-92.6
	c0,0,0.3-0.5,0.7-1.6c0.4-1,0.8-2.6,1-4.7C437.5,234.5,437.5,231.9,437.1,228.9z"/>
<linearGradient id="SVGID_24_" gradientUnits="userSpaceOnUse" x1="370.5584" y1="338.9815" x2="314.737" y2="793.611" gradientTransform="matrix(0.7829 0 0 -0.7829 0 728.6972)">
	<stop  offset="7.877540e-002" style="stop-color:#CDD1D4"/>
	<stop  offset="0.3652" style="stop-color:#E7E9EA"/>
	<stop  offset="0.5822" style="stop-color:#F5F6F7"/>
	<stop  offset="0.5921" style="stop-color:#F1F3F4"/>
	<stop  offset="0.601" style="stop-color:#E6E9EB"/>
	<stop  offset="0.6096" style="stop-color:#D4D8DB"/>
	<stop  offset="0.6179" style="stop-color:#BAC0C6"/>
	<stop  offset="0.6261" style="stop-color:#99A2A9"/>
	<stop  offset="0.634" style="stop-color:#707D88"/>
	<stop  offset="0.6378" style="stop-color:#5A6975"/>
	<stop  offset="0.7304" style="stop-color:#42464A"/>
</linearGradient>
<path fill="url(#SVGID_24_)" d="M422.8,232.7L348,385.2c-0.2,0.2-0.3,0.5-0.6,0.9c-0.2,0.4-0.5,0.7-0.9,1.1c-0.3,0.4-0.7,0.7-1.1,1
	s-0.9,0.5-1.3,0.6c-0.3,0.1-0.6,0.2-0.9,0.1c-0.3,0-0.7-0.1-1.2-0.2c-0.4-0.1-0.9-0.2-1.4-0.5c-0.5-0.2-1-0.5-1.6-0.8L123.2,271.6
	c-0.4-0.2-1.1-0.7-2-1.4c-0.9-0.7-1.9-1.7-3-3.1c-1.1-1.3-2.3-2.9-3.3-4.9c-1.1-2-2-4.2-2.8-6.9l-20.8,2.4c1.6,5.4,3.7,9.9,6.1,13.6
	c2.3,3.8,5,6.7,7.4,9.1c2.4,2.3,4.7,4,6.3,5.1c1.6,1.1,2.8,1.6,3,1.7l0.2,0.1l219.2,115.2c1.5,0.8,3,1.4,4.4,2
	c1.4,0.5,2.8,0.9,4.1,1c1.3,0.2,2.7,0.2,3.9,0.2c1.3-0.1,2.5-0.3,3.7-0.7c2-0.6,3.8-1.6,5.2-2.8c1.5-1.2,2.7-2.4,3.7-3.7
	c0.9-1.3,1.7-2.3,2.2-3.2c0.5-0.9,0.7-1.4,0.8-1.5l71.9-152.6l0.1-0.2c0,0,0.3-0.5,0.6-1.5c0.3-0.9,0.7-2.4,0.9-4.3
	c0.2-1.9,0.2-4.2-0.2-7c-0.4-2.8-1.2-6.1-2.7-9.9l-10.5,1.3c0.7,1.9,1.2,3.5,1.5,4.9s0.4,2.7,0.5,3.7c0,1-0.1,1.9-0.2,2.5
	s-0.2,1.1-0.3,1.3L422.8,232.7z"/>
<linearGradient id="SVGID_25_" gradientUnits="userSpaceOnUse" x1="511.2674" y1="533.0665" x2="642.3297" y2="238.6959" gradientTransform="matrix(0.7829 0 0 -0.7829 0 728.6972)">
	<stop  offset="0" style="stop-color:#5A5B5C"/>
	<stop  offset="6.082738e-002" style="stop-color:#636364"/>
	<stop  offset="0.1582" style="stop-color:#7A7B7B"/>
	<stop  offset="0.2798" style="stop-color:#A0A1A1"/>
	<stop  offset="0.4197" style="stop-color:#D4D4D5"/>
	<stop  offset="0.5218" style="stop-color:#FFFFFF"/>
	<stop  offset="0.5411" style="stop-color:#FBFBFB"/>
	<stop  offset="0.5616" style="stop-color:#EEEEEE"/>
	<stop  offset="0.5827" style="stop-color:#D9D9DA"/>
	<stop  offset="0.6042" style="stop-color:#BBBCBC"/>
	<stop  offset="0.626" style="stop-color:#949697"/>
	<stop  offset="0.6481" style="stop-color:#656769"/>
	<stop  offset="0.67" style="stop-color:#2F3134"/>
	<stop  offset="0.6807" style="stop-color:#111417"/>
	<stop  offset="0.7442" style="stop-color:#0B0C0D"/>
</linearGradient>
<path fill="url(#SVGID_25_)" d="M426.5,367.8c-0.1-2.6,0.9-5.1,1.7-7.5c0,0,0-0.1,0.1-0.1l-13.8-9.4c-0.3,1.1-0.6,2.2-0.9,3.3
	c1.9,1.6,2.8,4.1,2.4,6.7C419.6,363.1,423.1,365.4,426.5,367.8z"/>
<linearGradient id="SVGID_26_" gradientUnits="userSpaceOnUse" x1="510.3616" y1="-9.2314" x2="850.68" y2="82.9926" gradientTransform="matrix(0.764 -0.1708 -0.1708 -0.764 -219.1543 611.1975)">
	<stop  offset="0" style="stop-color:#96DFFC"/>
	<stop  offset="0.33" style="stop-color:#0090E1"/>
	<stop  offset="0.4171" style="stop-color:#008DDD"/>
	<stop  offset="0.5102" style="stop-color:#0085D0"/>
	<stop  offset="0.6058" style="stop-color:#0076BB"/>
	<stop  offset="0.66" style="stop-color:#006CAB"/>
	<stop  offset="0.9945" style="stop-color:#112835"/>
</linearGradient>
<path fill="url(#SVGID_26_)" d="M278.6,461.3l3,9.6l2,0.5c0,0,65.1-12.7,126.1-53.5l1.8-2.7l-9.6-2.9
	C401.9,412.2,354.7,444.2,278.6,461.3z"/>
<linearGradient id="SVGID_27_" gradientUnits="userSpaceOnUse" x1="801.3855" y1="106.5215" x2="470.7567" y2="-110.8701" gradientTransform="matrix(0.764 -0.1708 -0.1708 -0.764 -219.1543 611.1975)">
	<stop  offset="0" style="stop-color:#ABE7FF"/>
	<stop  offset="0.33" style="stop-color:#0090E1"/>
	<stop  offset="0.4171" style="stop-color:#008DDD"/>
	<stop  offset="0.5102" style="stop-color:#0085D0"/>
	<stop  offset="0.6058" style="stop-color:#0076BB"/>
	<stop  offset="0.66" style="stop-color:#006CAB"/>
	<stop  offset="0.8731" style="stop-color:#112835"/>
</linearGradient>
<path fill="url(#SVGID_27_)" d="M281.6,470.8c0,0,71.5-15.6,129.9-55.7c0,0-8.3,68.1-45.7,128c0,0-8.9-7.8-11.7-10.3
	c0,0-35.2,30-89.2,41.3s-82.6-9.8-88.9-14.2c-6.4-4.5-57.4-42.7-57.4-42.7l0.9-1.2c0,0,30.8,28.3,103.6,6.2
	c33.2-10.4,71.4-38.5,71.4-38.5h2.1L281.6,470.8z"/>
<linearGradient id="SVGID_28_" gradientUnits="userSpaceOnUse" x1="784.1987" y1="132.6609" x2="453.5699" y2="-84.7307" gradientTransform="matrix(0.764 -0.1708 -0.1708 -0.764 -219.1543 611.1975)">
	<stop  offset="8.743170e-002" style="stop-color:#C4EEFF"/>
	<stop  offset="0.2873" style="stop-color:#6BBFEC"/>
	<stop  offset="0.4116" style="stop-color:#38A4E1"/>
	<stop  offset="0.5166" style="stop-color:#238FCD"/>
	<stop  offset="0.66" style="stop-color:#006CAB"/>
	<stop  offset="0.8646" style="stop-color:#112835"/>
</linearGradient>
<path fill="url(#SVGID_28_)" d="M260.3,542.9c115.2-52.6,151.1-127.8,151.1-127.8c-58.4,40.2-129.9,55.7-129.9,55.7l15,12.8h-2.1
	c0,0-38.3,28.1-71.6,38.5c-72.7,22.1-103.6-6.2-103.6-6.2l-0.9,1.2c0,0,23.3,17.5,40.4,30.2C183.3,558.7,219.3,561.7,260.3,542.9z"
	/>
<linearGradient id="SVGID_29_" gradientUnits="userSpaceOnUse" x1="-742.2808" y1="1112.326" x2="287.2129" y2="274.0251" gradientTransform="matrix(0.7829 0 0 -0.7829 0 728.6972)">
	<stop  offset="0" style="stop-color:#112835"/>
	<stop  offset="8.196720e-002" style="stop-color:#1F5A7F"/>
	<stop  offset="0.388" style="stop-color:#47B1E1"/>
	<stop  offset="0.4884" style="stop-color:#2DA9E1"/>
	<stop  offset="0.6362" style="stop-color:#009BE1"/>
	<stop  offset="0.858" style="stop-color:#004E7F"/>
	<stop  offset="0.9945" style="stop-color:#112835"/>
</linearGradient>
<path fill="url(#SVGID_29_)" d="M98.3,403.9c-4.2,13.7-13.6,49.6-0.9,82.7c4.7,12.1,12.1,22.5,21.8,30.5
	c18.6,15,46.1,21.1,81.1,13.7c53.4-11.4,96.2-46.9,96.2-46.9l-7.4-6.4c-3.7,2.9-45.6,35-95.4,42.7c-52.2,8.1-85.6-18.9-92.1-59.2
	c-2.7-17.4-0.9-33.4,1-42.6c0,0,3.9-18.5,14.8-41.4l-2.7-9.3C103.5,387.7,98.3,403.9,98.3,403.9z"/>
<linearGradient id="SVGID_30_" gradientUnits="userSpaceOnUse" x1="513.6869" y1="531.1626" x2="644.7361" y2="236.8214" gradientTransform="matrix(0.7829 0 0 -0.7829 0 728.6972)">
	<stop  offset="3.375480e-002" style="stop-color:#1E1F20"/>
	<stop  offset="5.223993e-002" style="stop-color:#28292A"/>
	<stop  offset="0.2752" style="stop-color:#9A9B9B"/>
	<stop  offset="0.4286" style="stop-color:#E3E3E3"/>
	<stop  offset="0.4993" style="stop-color:#FFFFFF"/>
	<stop  offset="0.5173" style="stop-color:#FBFBFB"/>
	<stop  offset="0.5364" style="stop-color:#EEEEEE"/>
	<stop  offset="0.5561" style="stop-color:#D9D9DA"/>
	<stop  offset="0.5761" style="stop-color:#BBBCBC"/>
	<stop  offset="0.5965" style="stop-color:#949697"/>
	<stop  offset="0.617" style="stop-color:#656769"/>
	<stop  offset="0.6375" style="stop-color:#2F3134"/>
	<stop  offset="0.6474" style="stop-color:#111417"/>
	<stop  offset="0.7442" style="stop-color:#0B0C0D"/>
</linearGradient>
<path fill="url(#SVGID_30_)" d="M413.8,353.4c-1.3,4.9-2.7,9.4-3.9,13.3l20.2,13.5c5.8-1.5,11.2-3.1,16.2-4.7L413.8,353.4z"/>
<radialGradient id="SVGID_31_" cx="828.7122" cy="532.5752" r="371.4311" fx="832.3777" fy="509.8525" gradientTransform="matrix(0.7783 -8.471075e-002 -8.471075e-002 -0.7783 -105.4154 606.9533)" gradientUnits="userSpaceOnUse">
	<stop  offset="0" style="stop-color:#96DFFC"/>
	<stop  offset="0.281" style="stop-color:#0090E1"/>
	<stop  offset="0.3387" style="stop-color:#008DDD"/>
	<stop  offset="0.4005" style="stop-color:#0085D0"/>
	<stop  offset="0.4639" style="stop-color:#0077BB"/>
	<stop  offset="0.4774" style="stop-color:#0073B5"/>
	<stop  offset="0.66" style="stop-color:#006CAB"/>
	<stop  offset="0.9945" style="stop-color:#112835"/>
</radialGradient>
<path fill="url(#SVGID_31_)" d="M416.5,393.6l8.2,1.6l1.6-0.9c0,0,27.9-67.6,23.1-127.7l-0.6-1.7l-11,4.4
	C437.7,269.1,442.8,318.8,416.5,393.6z"/>
<linearGradient id="SVGID_32_" gradientUnits="userSpaceOnUse" x1="635.9196" y1="-59.7416" x2="545.6957" y2="605.2072" gradientTransform="matrix(0.7829 0 0 -0.7829 0 728.6972)">
	<stop  offset="0" style="stop-color:#FFFFFF"/>
	<stop  offset="0.4569" style="stop-color:#393939"/>
	<stop  offset="0.6877" style="stop-color:#414243"/>
	<stop  offset="1" style="stop-color:#0B0B0C"/>
</linearGradient>
<path fill="url(#SVGID_32_)" d="M427.9,262.2c0,1.9-0.1,3.8-0.2,5.6l2-4.1C428.6,262.8,427.9,262.2,427.9,262.2z"/>
<linearGradient id="SVGID_33_" gradientUnits="userSpaceOnUse" x1="674.423" y1="244.0052" x2="830.5489" y2="358.8035" gradientTransform="matrix(0.7783 -8.471075e-002 -8.471075e-002 -0.7783 -105.4154 606.9533)">
	<stop  offset="0" style="stop-color:#96DFFC"/>
	<stop  offset="0.33" style="stop-color:#009EE1"/>
	<stop  offset="0.4171" style="stop-color:#009ADD"/>
	<stop  offset="0.5102" style="stop-color:#008ED0"/>
	<stop  offset="0.6058" style="stop-color:#007ABB"/>
	<stop  offset="0.66" style="stop-color:#006CAB"/>
	<stop  offset="0.9945" style="stop-color:#112835"/>
</linearGradient>
<path fill="url(#SVGID_33_)" d="M424.7,395.2c0,0,26.8-57.9,24-130.4c0,0,2,3.1,4.4,6.7c2.2,3.4,4.7,7.5,6.1,10.1l-0.4-2.6
	c0,0,18.4-43.8-8-70l3.1,1.1l5,5.8l34.2,53.9c0,0,12,18,12.6,39.5c0.6,24-4.5,35.8-5.8,38.8l8.8,14.2
	C508.7,362.5,479.2,384.5,424.7,395.2z"/>
<linearGradient id="SVGID_34_" gradientUnits="userSpaceOnUse" x1="662.2157" y1="260.6043" x2="819.844" y2="376.5074" gradientTransform="matrix(0.7783 -8.471075e-002 -8.471075e-002 -0.7783 -105.4154 606.9533)">
	<stop  offset="9.363720e-002" style="stop-color:#A6E6FF"/>
	<stop  offset="0.4964" style="stop-color:#38A4E1"/>
	<stop  offset="0.5542" style="stop-color:#309DDC"/>
	<stop  offset="0.6452" style="stop-color:#198BCD"/>
	<stop  offset="0.725" style="stop-color:#0077BD"/>
	<stop  offset="0.9945" style="stop-color:#112835"/>
</linearGradient>
<path fill="url(#SVGID_34_)" d="M485.2,257.3L485.2,257.3L458.9,216l-5-5.8l-3.1-1.1c26.4,26.1,8,70,8,70l0.4,2.6
	c-1.4-2.6-3.9-6.7-6.1-10.1c-2.3-3.7-4.4-6.7-4.4-6.7c2.9,72.4-23.9,130.4-23.9,130.4S505.4,327.8,485.2,257.3z"/>
<linearGradient id="SVGID_35_" gradientUnits="userSpaceOnUse" x1="19.4488" y1="919.1913" x2="764.4405" y2="312.5561" gradientTransform="matrix(0.7783 -8.471075e-002 -8.471075e-002 -0.7783 -105.4154 606.9533)">
	<stop  offset="0" style="stop-color:#112835"/>
	<stop  offset="8.196720e-002" style="stop-color:#1F5A7F"/>
	<stop  offset="0.388" style="stop-color:#47B1E1"/>
	<stop  offset="0.4884" style="stop-color:#2DA9E1"/>
	<stop  offset="0.6362" style="stop-color:#009BE1"/>
	<stop  offset="0.858" style="stop-color:#004E7F"/>
	<stop  offset="0.9945" style="stop-color:#112835"/>
</linearGradient>
<path fill="url(#SVGID_35_)" d="M379.2,195.6c5.6-0.2,28.3-0.2,47.4,8.4c22.5,10,30.7,27.6,29.8,49.6c-0.2,6.7-1.6,13.2-3.1,18.2
	c2.1,3.4,4.5,7.3,6,9.8c0,0,12.7-25.4,5.5-51.1c-7.1-25.6-32.3-36.6-51.8-40c-18.9-3.3-29.8-2.7-46-1.6c0,0-57.5,3.4-127.3,49.4
	l15.3-1.7C324.4,195.8,379.2,195.6,379.2,195.6z"/>
<radialGradient id="SVGID_36_" cx="663.5325" cy="-33.3722" r="535.3882" fx="442.8591" fy="-423.4668" gradientTransform="matrix(0.7829 0 0 -0.7829 0 728.6972)" gradientUnits="userSpaceOnUse">
	<stop  offset="9.241660e-002" style="stop-color:#FFFFFF"/>
	<stop  offset="0.7156" style="stop-color:#00BBFF"/>
	<stop  offset="0.7443" style="stop-color:#00B3F7"/>
	<stop  offset="0.7896" style="stop-color:#009EE0"/>
	<stop  offset="0.8455" style="stop-color:#007BBB"/>
	<stop  offset="0.8674" style="stop-color:#006CAB"/>
	<stop  offset="0.9945" style="stop-color:#112835"/>
</radialGradient>
<path fill="url(#SVGID_36_)" d="M379.4,433.2c-20.1,10.6-41.1,19.6-62.6,26.8c-18.3,6.4-35.2,10.8-35.2,10.8s24.5-5.2,35.7-9.3
	c21.6-7.3,42.7-16,62.9-26.6c16.5-8.3,31.2-19.8,31.2-19.8S393.3,426.3,379.4,433.2z"/>
<radialGradient id="SVGID_37_" cx="708.5932" cy="478.6218" r="227.4566" fx="574.7595" fy="444.5911" gradientTransform="matrix(0.7829 0 0 -0.7829 0 728.6972)" gradientUnits="userSpaceOnUse">
	<stop  offset="9.241660e-002" style="stop-color:#FFFFFF"/>
	<stop  offset="0.7156" style="stop-color:#00BBFF"/>
	<stop  offset="0.7443" style="stop-color:#00B3F7"/>
	<stop  offset="0.7896" style="stop-color:#009EE0"/>
	<stop  offset="0.8455" style="stop-color:#007BBB"/>
	<stop  offset="0.8674" style="stop-color:#006CAB"/>
	<stop  offset="0.9945" style="stop-color:#112835"/>
</radialGradient>
<path fill="url(#SVGID_37_)" d="M447.1,299.3c-1.8,21.3-5.7,42.4-11.6,62.9c-2.2,8.8-10.3,33.1-10.8,32.9
	c0.6,0.1,9.9-23.5,12.3-32.5c6-20.6,9.9-41.8,11.7-63.2c1.8-20.7,0.1-34.8,0.1-34.8S449,281.9,447.1,299.3z"/>
<linearGradient id="SVGID_38_" gradientUnits="userSpaceOnUse" x1="391.8434" y1="516.1925" x2="526.0652" y2="262.3926" gradientTransform="matrix(0.7829 0 0 -0.7829 0 728.6972)">
	<stop  offset="0" style="stop-color:#112835"/>
	<stop  offset="8.196720e-002" style="stop-color:#1F5A7F"/>
	<stop  offset="0.388" style="stop-color:#47B1E1"/>
	<stop  offset="0.4884" style="stop-color:#2DA9E1"/>
	<stop  offset="0.6362" style="stop-color:#009BE1"/>
	<stop  offset="0.858" style="stop-color:#004E7F"/>
	<stop  offset="0.9945" style="stop-color:#112835"/>
</linearGradient>
<path fill="url(#SVGID_38_)" d="M403.5,449.7c-5.4,21.1-12.6,42-21.8,61.8c-7.6,17.4-16,31.7-16,31.7s9.2-13.2,17.6-30.9
	c9.2-20,16.4-40.8,21.9-62.1c4-16.7,6.2-35,6.2-35S408.6,430.6,403.5,449.7z"/>
<linearGradient id="SVGID_39_" gradientUnits="userSpaceOnUse" x1="456.2156" y1="842.8121" x2="450.5883" y2="387.899" gradientTransform="matrix(0.7829 0 0 -0.7829 0 728.6972)">
	<stop  offset="0" style="stop-color:#CAF0FD"/>
	<stop  offset="0.2857" style="stop-color:#95D5FC"/>
	<stop  offset="0.5879" style="stop-color:#43ADFA"/>
	<stop  offset="0.6553" style="stop-color:#3995DA"/>
	<stop  offset="0.8579" style="stop-color:#1D507F"/>
	<stop  offset="0.9945" style="stop-color:#0B2535"/>
</linearGradient>
<path fill="url(#SVGID_39_)" d="M320.1,208c28.7-8.8,59.5-15.7,89.3-8.7c4.8,1.2,32.3,6.4,42.2,28.8c9.6,21.8,1.7,43.8,1.7,43.8
	s8.3-21.8-1-44c-9.7-23-37.8-28.8-42.6-30c-30.1-7.1-61.2-0.2-90,8.8c-23.2,7.5-45.5,17.8-66.4,30.2l3.5-0.4
	C276.8,224.7,298,215.1,320.1,208z"/>
<linearGradient id="SVGID_40_" gradientUnits="userSpaceOnUse" x1="224.8145" y1="214.0551" x2="295.4861" y2="627.9886" gradientTransform="matrix(0.7829 0 0 -0.7829 0 728.6972)">
	<stop  offset="0" style="stop-color:#CAF0FD"/>
	<stop  offset="0.2857" style="stop-color:#95D5FC"/>
	<stop  offset="0.5879" style="stop-color:#43ADFA"/>
	<stop  offset="0.6553" style="stop-color:#3995DA"/>
	<stop  offset="0.8579" style="stop-color:#1D507F"/>
	<stop  offset="0.9945" style="stop-color:#0B2535"/>
</linearGradient>
<path fill="url(#SVGID_40_)" d="M116.9,377.1c-9.7,19.6-16,42.1-16.2,47.8c-4,27.9,0.6,60.3,23.4,79.7
	c22.4,19.6,54.8,20.7,82.1,13.7c5.5-1,27.9-7.8,47.2-18.2c19.4-10.1,35.7-22.6,35.6-22.7c0.1,0.1-16.4,12.4-35.9,22.1
	c-19.4,10.1-41.7,16.4-47.2,17.5c-27.2,6.9-59,5.7-80.8-13.4c-22.3-18.9-26.9-50.7-22.9-78.4c0.2-5.5,6.1-28,15.4-47.7l-0.3-1.1
	C117.1,376.5,117,376.9,116.9,377.1z"/>
<radialGradient id="SVGID_41_" cx="626.1114" cy="964.6225" r="1102.4137" fx="1037.6373" fy="393.8347" gradientTransform="matrix(0.7829 0 0 -0.7829 0 728.6972)" gradientUnits="userSpaceOnUse">
	<stop  offset="0" style="stop-color:#96DFFC"/>
	<stop  offset="0.33" style="stop-color:#0090E1"/>
	<stop  offset="0.4171" style="stop-color:#008DDD"/>
	<stop  offset="0.5102" style="stop-color:#0085D0"/>
	<stop  offset="0.6058" style="stop-color:#0076BB"/>
	<stop  offset="0.66" style="stop-color:#006CAB"/>
	<stop  offset="0.9945" style="stop-color:#000000"/>
</radialGradient>
<path fill="url(#SVGID_41_)" d="M294,564.7c-38.5,14.4-85.9,18.9-120.2-7.4c-6.7-4.8-55.4-40.1-55.4-40.1
	c0.2,0.2,47.7,36.8,54.3,41.6c35,26.9,83.1,22.2,121.9,7.7c3.8-1.4,19.9-7.8,33.7-16c14-8,25.7-17.6,25.7-17.6s-11.9,9.3-26.1,16.8
	C313.8,557.4,297.8,563.3,294,564.7z"/>
<radialGradient id="SVGID_42_" cx="806.1703" cy="-418.7301" r="1166.3315" fx="388.1646" fy="-1074.744" gradientTransform="matrix(0.7829 0 0 -0.7829 0 728.6972)" gradientUnits="userSpaceOnUse">
	<stop  offset="0" style="stop-color:#FCFCFC"/>
	<stop  offset="0.33" style="stop-color:#0090E1"/>
	<stop  offset="0.4171" style="stop-color:#008DDD"/>
	<stop  offset="0.5102" style="stop-color:#0085D0"/>
	<stop  offset="0.6058" style="stop-color:#0076BB"/>
	<stop  offset="0.66" style="stop-color:#006CAB"/>
	<stop  offset="0.9945" style="stop-color:#000000"/>
</radialGradient>
<path fill="url(#SVGID_42_)" d="M94.7,414.3c-7.7,31.4-6.9,68.5,15.2,94.5c22.3,26.4,60.5,29.6,91.9,22.2c6.3-1,32.3-8.5,54.3-20.7
	c22.2-11.7,40.6-26.6,40.6-26.6s-18.5,14.6-40.9,25.9c-22.2,11.9-48,18.9-54.2,20c-31.2,7.4-68.7,4.1-90.4-21.8
	c-21.6-25.4-22.5-62-14.9-93.2c4.6-18.8,8.6-29.4,18.8-46.7l-0.3-1.1C103.7,385,99,397.5,94.7,414.3z"/>
<linearGradient id="SVGID_43_" gradientUnits="userSpaceOnUse" x1="440.1825" y1="574.1833" x2="654.01" y2="400.0669" gradientTransform="matrix(0.7829 0 0 -0.7829 0 728.6972)">
	<stop  offset="0" style="stop-color:#112835"/>
	<stop  offset="8.196720e-002" style="stop-color:#1F5A7F"/>
	<stop  offset="0.388" style="stop-color:#47B1E1"/>
	<stop  offset="0.4884" style="stop-color:#2DA9E1"/>
	<stop  offset="0.6362" style="stop-color:#009BE1"/>
	<stop  offset="0.858" style="stop-color:#004E7F"/>
	<stop  offset="0.9945" style="stop-color:#112835"/>
</linearGradient>
<path fill="url(#SVGID_43_)" d="M488.1,373.6c-13,6.3-26.7,11.4-40.6,15.4c-13.2,4.1-22.7,6.1-22.7,6.1s10.3-1.4,23.1-4.9
	c14-4,27.7-9.1,40.9-15.5c15.7-8.3,20.1-12.4,20.1-12.4S500.7,367.7,488.1,373.6z"/>
<radialGradient id="SVGID_44_" cx="459.1933" cy="445.8887" r="227.7998" fx="544.2299" fy="327.9426" gradientTransform="matrix(0.7829 0 0 -0.7829 0 728.6972)" gradientUnits="userSpaceOnUse">
	<stop  offset="0" style="stop-color:#96DFFC"/>
	<stop  offset="0.33" style="stop-color:#0090E1"/>
	<stop  offset="0.4171" style="stop-color:#008DDD"/>
	<stop  offset="0.5102" style="stop-color:#0085D0"/>
	<stop  offset="0.6058" style="stop-color:#0076BB"/>
	<stop  offset="0.66" style="stop-color:#006CAB"/>
	<stop  offset="0.9945" style="stop-color:#000000"/>
</radialGradient>
<path fill="url(#SVGID_44_)" d="M458.9,216c3.4,6,5.6,9.9,10,16.8c4.5,7.5,27.3,43.4,27.3,43.4s5.9,9,8,23.3
	c2.2,11.9,1.1,24.2,0.5,29c-0.9,8.2-2.7,13.3-4.7,19.6c2.6-6.3,4.3-11.5,5.6-19.9c0.5-4.4,1.9-16.8-0.3-29
	c-2.2-15-8.1-23.6-8.1-23.6s-22.8-35.9-27.3-43.5C465.5,225.3,462.9,221.5,458.9,216z"/>
<radialGradient id="SVGID_45_" cx="865.4805" cy="309.9768" r="694.8828" fx="1086.7728" fy="507.4114" gradientTransform="matrix(0.7829 0 0 -0.7829 0 728.6972)" gradientUnits="userSpaceOnUse">
	<stop  offset="0" style="stop-color:#FCFCFC"/>
	<stop  offset="0.33" style="stop-color:#0090E1"/>
	<stop  offset="0.4171" style="stop-color:#008DDD"/>
	<stop  offset="0.5102" style="stop-color:#0085D0"/>
	<stop  offset="0.6058" style="stop-color:#0076BB"/>
	<stop  offset="0.66" style="stop-color:#006CAB"/>
	<stop  offset="0.9945" style="stop-color:#000000"/>
</radialGradient>
<path fill="url(#SVGID_45_)" d="M258.9,226.9c17.1-9.6,34.6-17,40.9-19.5c23.8-9.4,48.7-17,74.3-18.2c25.2-1.6,52.5,1.2,73,16.7
	c6.7,5.2,18.7,16.5,19.3,38.9c0.9,19.7-7.3,36.8-7.3,36.8s8.5-17.1,8-37c0.1-21.8-12.4-34.6-19-39.9c-21.1-15.9-48.7-18.5-74.1-17
	c-25.8,1.3-50.9,8.9-74.8,18.3c-4.7,1.7-23.8,10.2-40.7,20.2c-7,4.1-13.7,8.4-19.1,12.1l0.7-0.1C245.4,234.8,252,230.8,258.9,226.9z
	"/>
<linearGradient id="SVGID_46_" gradientUnits="userSpaceOnUse" x1="-715.9514" y1="1144.7632" x2="313.6058" y2="306.4104" gradientTransform="matrix(0.7829 0 0 -0.7829 0 728.6972)">
	<stop  offset="0" style="stop-color:#0B1B23"/>
	<stop  offset="8.196720e-002" style="stop-color:#153C55"/>
	<stop  offset="0.388" style="stop-color:#2F7696"/>
	<stop  offset="0.5331" style="stop-color:#156E96"/>
	<stop  offset="0.6362" style="stop-color:#006896"/>
	<stop  offset="0.858" style="stop-color:#003455"/>
	<stop  offset="0.9945" style="stop-color:#0B1B23"/>
</linearGradient>
<path fill="url(#SVGID_46_)" d="M117.4,376.8l-2.7-9.3c-3.2,5.6-5.9,11-8.1,15.7l3.6,10.2C112.3,388.4,114.6,382.7,117.4,376.8z"/>
<linearGradient id="SVGID_47_" gradientUnits="userSpaceOnUse" x1="110.3406" y1="233.5993" x2="181.0126" y2="647.5351" gradientTransform="matrix(0.7829 0 0 -0.7829 0 728.6972)">
	<stop  offset="0" style="stop-color:#8EA9B2"/>
	<stop  offset="0.2857" style="stop-color:#6996B1"/>
	<stop  offset="0.5879" style="stop-color:#2F79AF"/>
	<stop  offset="0.8579" style="stop-color:#133555"/>
	<stop  offset="0.9945" style="stop-color:#071923"/>
</linearGradient>
<path fill="url(#SVGID_47_)" d="M117.6,377.3l-0.3-1.1c-0.2,0.2-0.2,0.5-0.4,0.8c-2.5,5.1-4.9,10.4-6.8,15.6l0.5,1.5
	C112.6,388.7,114.9,382.9,117.6,377.3z"/>
<radialGradient id="SVGID_48_" cx="806.0083" cy="-418.7297" r="1166.2224" fx="388.0416" fy="-1074.6823" gradientTransform="matrix(0.7829 0 0 -0.7829 0 728.6972)" gradientUnits="userSpaceOnUse">
	<stop  offset="0" style="stop-color:#B1B1B1"/>
	<stop  offset="0.33" style="stop-color:#006096"/>
	<stop  offset="0.4378" style="stop-color:#005D92"/>
	<stop  offset="0.553" style="stop-color:#005585"/>
	<stop  offset="0.66" style="stop-color:#004872"/>
	<stop  offset="0.9945" style="stop-color:#000000"/>
</radialGradient>
<path fill="url(#SVGID_48_)" d="M114.9,367.9l-0.3-1.1c-3.3,5.5-6,10.4-8.3,15.2l0.5,1.3C108.9,378.5,111.6,373.6,114.9,367.9z"/>
</svg>
