<svg xmlns="http://www.w3.org/2000/svg"  viewBox="0 0 100 100" width="100px" height="100px" baseProfile="basic"><path fill="#fefdef" d="M82,29.429v41.143C82,76.857,76.857,82,70.571,82H29.429C23.143,82,18,76.857,18,70.571V29.429	C18,23.143,23.143,18,29.429,18h41.143C76.857,18,82,23.143,82,29.429z"/><path fill="#1f212b" d="M70.571,83H29.429C22.575,83,17,77.424,17,70.571V29.429C17,22.576,22.575,17,29.429,17h41.143	C77.425,17,83,22.576,83,29.429v41.143C83,77.424,77.425,83,70.571,83z M29.429,19C23.679,19,19,23.678,19,29.429v41.143	C19,76.322,23.679,81,29.429,81h41.143C76.321,81,81,76.322,81,70.571V29.429C81,23.678,76.321,19,70.571,19H29.429z"/><path fill="#1f212b" d="M70.571,78H29.429C25.332,78,22,74.667,22,70.571V29.429C22,25.333,25.332,22,29.429,22H33.5	c0.276,0,0.5,0.224,0.5,0.5S33.776,23,33.5,23h-4.071C25.884,23,23,25.884,23,29.429v41.143C23,74.116,25.884,77,29.429,77h41.143	C74.116,77,77,74.116,77,70.571V66.5c0-0.276,0.224-0.5,0.5-0.5s0.5,0.224,0.5,0.5v4.071C78,74.667,74.668,78,70.571,78z"/><path fill="#1f212b" d="M77.5,64c-0.276,0-0.5-0.224-0.5-0.5v-3c0-0.276,0.224-0.5,0.5-0.5s0.5,0.224,0.5,0.5v3	C78,63.776,77.776,64,77.5,64z"/><path fill="#1f212b" d="M77.5,49c-0.276,0-0.5-0.224-0.5-0.5V29.429C77,25.884,74.116,23,70.571,23H51.5	c-0.276,0-0.5-0.224-0.5-0.5s0.224-0.5,0.5-0.5h19.071C74.668,22,78,25.333,78,29.429V48.5C78,48.776,77.776,49,77.5,49z"/><path fill="#1f212b" d="M48.5,23h-3c-0.276,0-0.5-0.224-0.5-0.5s0.224-0.5,0.5-0.5h3c0.276,0,0.5,0.224,0.5,0.5	S48.776,23,48.5,23z"/><path fill="#1f212b" d="M42.5,23h-6c-0.276,0-0.5-0.224-0.5-0.5s0.224-0.5,0.5-0.5h6c0.276,0,0.5,0.224,0.5,0.5	S42.776,23,42.5,23z"/><path fill="#f9b621" d="M47.873,51.57c-0.156,0-0.315-0.037-0.464-0.115C47.229,51.36,43,49.079,43,44.3	c0-3.201,2.486-5.094,4.891-6.924c2.981-2.27,5.557-4.23,4.16-8.462c-0.174-0.524,0.111-1.09,0.636-1.263	c0.526-0.172,1.09,0.112,1.263,0.636c1.844,5.586-1.866,8.411-4.847,10.68C46.901,40.643,45,42.09,45,44.3	c0,3.554,3.207,5.313,3.344,5.387c0.485,0.26,0.671,0.865,0.413,1.352C48.577,51.376,48.23,51.57,47.873,51.57z"/><path fill="#f9b621" d="M51.251,52.489c-0.321,0-0.636-0.154-0.829-0.44c-0.307-0.453-0.191-1.067,0.255-1.379	c0.054-0.04,0.779-0.609,0.779-1.887c0-0.435-0.252-0.714-0.776-1.256C49.971,46.795,49,45.792,49,43.891	c0-3.853,4.607-6.938,7.722-7.809c0.527-0.146,1.085,0.161,1.232,0.693c0.149,0.532-0.161,1.083-0.693,1.232	C54.702,38.724,51,41.231,51,43.891c0,1.092,0.492,1.601,1.116,2.245c0.597,0.617,1.34,1.384,1.34,2.647	c0,1.912-1.034,3.122-1.646,3.535C51.639,52.434,51.443,52.489,51.251,52.489z"/><path fill="#5c769b" d="M57.611,60.555c-0.414,0-0.801-0.26-0.944-0.673c-0.181-0.521,0.096-1.091,0.616-1.272	c1.318-0.459,4.738-2.183,4.738-4.609c0-1.035-0.39-1.34-0.518-1.441c-0.642-0.502-1.841-0.354-2.251-0.253	c-0.537,0.129-1.077-0.194-1.21-0.728c-0.134-0.534,0.188-1.076,0.722-1.211c0.244-0.062,2.438-0.574,3.964,0.611	c0.59,0.458,1.293,1.355,1.293,3.022c0,4.347-5.835,6.414-6.084,6.5C57.83,60.537,57.72,60.554,57.611,60.555z"/><path fill="#5c769b" d="M44.512,55.974c-3.198,0-5.916-0.318-6.872-0.994C37.083,54.586,37,54.095,37,53.837	c0-2.139,3.777-3.043,5.4-3.332c0.554-0.099,1.063,0.266,1.16,0.809c0.097,0.543-0.265,1.063-0.809,1.16	c-1.319,0.236-2.703,0.702-3.373,1.102c2.655,0.683,12.045,0.587,16.778-1.089c0.523-0.184,1.094,0.089,1.276,0.609	c0.185,0.521-0.088,1.092-0.608,1.277C53.899,55.407,48.778,55.974,44.512,55.974z"/><path fill="#5c769b" d="M45.659,59.967c-3.214,0-5.905-0.545-6.476-2.028c-0.701-1.824,1.84-3.251,2.674-3.72	c0.481-0.271,1.091-0.099,1.362,0.382c0.271,0.481,0.1,1.091-0.382,1.362c-1.215,0.682-1.604,1.125-1.724,1.304	c0.935,0.764,6.455,1.165,12.703-0.248c0.537-0.12,1.074,0.216,1.196,0.755c0.121,0.539-0.217,1.074-0.755,1.196	C51.711,59.546,48.483,59.967,45.659,59.967z"/><path fill="#5c769b" d="M46.204,63.969c-2.369,0-4.48-0.422-5.06-1.802c-0.51-1.213,0.269-2.519,2.312-3.88	c0.461-0.307,1.08-0.182,1.387,0.278c0.307,0.459,0.182,1.081-0.277,1.387c-1.474,0.98-1.565,1.496-1.565,1.5	c0.283,0.367,3.263,1.126,10.177-0.331c0.539-0.113,1.07,0.232,1.185,0.772c0.114,0.54-0.231,1.071-0.772,1.185	C52.18,63.375,49.011,63.969,46.204,63.969z"/><path fill="#5c769b" d="M45.875,69.3C33.1,69.3,33.1,66.952,33.1,66.067c0-2.028,3.338-2.675,4.773-2.859	c0.553-0.076,1.049,0.317,1.118,0.864c0.071,0.548-0.316,1.049-0.863,1.12c-1.167,0.151-2.437,0.535-2.902,0.854	c0.711,0.447,3.477,1.253,10.649,1.253c7.766,0,13.537-1.235,14.401-2.141c-0.005-0.006-0.011-0.012-0.017-0.019	c-0.371-0.409-0.341-1.041,0.067-1.413c0.408-0.371,1.042-0.341,1.413,0.067c0.58,0.639,0.738,1.398,0.435,2.085	C60.68,69.261,46.479,69.3,45.875,69.3z"/><path fill="#5c769b" d="M49.49,72.567c-4.561,0-8.308-0.541-8.635-0.589c-0.547-0.081-0.924-0.59-0.843-1.136	c0.082-0.545,0.591-0.919,1.136-0.842c0.164,0.024,16.502,2.377,22.112-2.739c0.407-0.371,1.04-0.343,1.413,0.065	c0.372,0.408,0.343,1.041-0.065,1.413C61.214,71.834,54.801,72.567,49.49,72.567z"/></svg>