<svg xmlns="http://www.w3.org/2000/svg"  viewBox="0 0 100 100" width="100px" height="100px" fill-rule="evenodd" clip-rule="evenodd" baseProfile="basic"><path fill="#4a5397" fill-rule="evenodd" d="M48.067,13.504c1.196-0.671,2.669-0.671,3.864,0	c5.911,3.318,23.699,13.304,29.612,16.622c1.196,0.67,1.933,1.91,1.933,3.252c0,6.635,0,26.607,0,33.242	c0,1.343-0.736,2.583-1.933,3.254c-5.911,3.318-23.699,13.304-29.612,16.622c-1.196,0.671-2.669,0.671-3.864,0	c-5.911-3.318-23.699-13.304-29.612-16.622c-1.195-0.671-1.931-1.91-1.931-3.252c0-6.635,0-26.607,0-33.242	c0-1.343,0.736-2.583,1.933-3.254C24.366,26.809,42.158,16.822,48.067,13.504z" clip-rule="evenodd"/><path fill="#787ab5" fill-rule="evenodd" d="M17.059,68.331c-0.469-0.627-0.536-1.223-0.536-2.024	c0-6.597,0-26.453,0-33.052c0-1.336,0.735-2.569,1.928-3.235c5.89-3.298,23.618-13.227,29.508-16.527	c1.193-0.668,2.808-0.654,4.001,0.014c5.89,3.298,23.558,13.142,29.448,16.44c0.476,0.268,0.839,0.59,1.163,1.015L17.059,68.331z" clip-rule="evenodd"/><path fill="#fff" fill-rule="evenodd" d="M50,26.001c13.246,0,24,10.753,24,24S63.246,74,50,74	S26,63.246,26,50S36.754,26.001,50,26.001z M50,38.001c6.622,0,12,5.376,12,12c0,6.622-5.378,12-12,12s-12-5.378-12-12	C38,43.377,43.376,38.001,50,38.001z" clip-rule="evenodd"/><path fill="#565fa0" fill-rule="evenodd" d="M82.569,30.981c0.909,0.851,0.892,2.134,0.892,3.143	c0,6.686-0.056,25.704,0.016,32.391c0.007,0.698-0.224,1.432-0.569,1.986L49.283,50L82.569,30.981z" clip-rule="evenodd"/><path fill="#1f212b" d="M49.999,87.998c-0.83,0-1.66-0.211-2.399-0.634l-29.19-16.62C16.923,69.896,16,68.317,16,66.622	V33.381c0-1.697,0.924-3.277,2.41-4.124L47.6,12.636c1.482-0.844,3.322-0.844,4.799,0.001l29.19,16.62	C83.076,30.102,84,31.682,84,33.379V66.62c0,1.696-0.924,3.276-2.41,4.124L52.397,87.365C51.658,87.787,50.828,87.998,49.999,87.998	z M49.999,14.002c-0.487,0-0.975,0.124-1.409,0.372L19.4,30.995c-0.864,0.491-1.4,1.406-1.4,2.386v33.241	c0,0.979,0.536,1.893,1.398,2.385l29.191,16.62c0.869,0.496,1.949,0.496,2.818,0L80.6,69.006C81.463,68.514,82,67.6,82,66.62V33.379	c0-0.979-0.536-1.893-1.399-2.384L51.408,14.374C50.974,14.126,50.486,14.002,49.999,14.002z"/><path fill="#1f212b" d="M47.125,19.121c-0.175,0-0.345-0.092-0.436-0.255c-0.136-0.241-0.05-0.546,0.19-0.681l2.9-1.628	c0.243-0.137,0.547-0.05,0.681,0.19c0.136,0.241,0.05,0.546-0.19,0.681l-2.9,1.628C47.292,19.101,47.208,19.121,47.125,19.121z"/><path fill="#1f212b" d="M35.761,25.5c-0.175,0-0.345-0.092-0.436-0.255c-0.136-0.241-0.05-0.546,0.19-0.681l9.739-5.467	c0.243-0.137,0.547-0.051,0.681,0.19c0.136,0.241,0.05,0.546-0.19,0.681l-9.739,5.467C35.928,25.479,35.844,25.5,35.761,25.5z"/><path fill="#1f212b" d="M20.523,63.75c-0.276,0-0.5-0.224-0.5-0.5V33.553c0-0.181,0.098-0.348,0.255-0.436l10.852-6.091	c0.243-0.137,0.547-0.051,0.681,0.19c0.136,0.241,0.05,0.546-0.19,0.681l-10.597,5.948V63.25C21.023,63.526,20.8,63.75,20.523,63.75	z"/><path fill="#1f212b" d="M57.5,79.283c-0.175,0-0.345-0.092-0.436-0.255c-0.136-0.241-0.05-0.546,0.19-0.681l5.125-2.877	c0.243-0.137,0.547-0.051,0.681,0.19c0.136,0.241,0.05,0.546-0.19,0.681l-5.125,2.877C57.667,79.263,57.583,79.283,57.5,79.283z"/><path fill="#1f212b" d="M65.75,74.652c-0.175,0-0.345-0.092-0.436-0.255c-0.136-0.241-0.05-0.546,0.19-0.681l13.472-7.562	V33.553c0-0.276,0.224-0.5,0.5-0.5s0.5,0.224,0.5,0.5v32.896c0,0.181-0.098,0.348-0.255,0.436l-13.727,7.704	C65.917,74.632,65.833,74.652,65.75,74.652z"/><path fill="#1f212b" d="M49.97,74.045c-13.258,0-24.044-10.786-24.044-24.045c0-13.258,10.786-24.044,24.044-24.044	c8.449,0,16.381,4.528,20.699,11.817c0.067,0.115,0.087,0.253,0.053,0.383c-0.034,0.129-0.119,0.24-0.235,0.307l-10.231,5.846	c-0.231,0.132-0.532,0.059-0.675-0.174c-2.072-3.385-5.665-5.406-9.61-5.406c-6.215,0-11.271,5.057-11.271,11.271	c0,6.216,5.057,11.272,11.271,11.272c3.965,0,7.686-2.135,9.71-5.57c0.137-0.234,0.437-0.314,0.672-0.185l10.321,5.679	c0.117,0.065,0.204,0.174,0.24,0.303s0.02,0.267-0.047,0.384C66.588,69.385,58.581,74.045,49.97,74.045z M49.97,26.956	c-12.706,0-23.044,10.338-23.044,23.044c0,12.707,10.338,23.045,23.044,23.045c8.084,0,15.613-4.286,19.771-11.22l-9.455-5.202	c-2.252,3.497-6.16,5.649-10.316,5.649c-6.767,0-12.271-5.506-12.271-12.272s5.505-12.271,12.271-12.271	c4.135,0,7.914,2.037,10.202,5.476l9.372-5.355C65.352,31.117,57.898,26.956,49.97,26.956z"/><path fill="#1f212b" d="M65.905,37.549c-0.145,0-0.288-0.063-0.388-0.184c-2.681-3.283-6.416-5.684-10.52-6.76	c-0.267-0.069-0.427-0.343-0.356-0.61c0.069-0.268,0.34-0.432,0.61-0.356c4.306,1.129,8.227,3.648,11.041,7.094	c0.174,0.214,0.143,0.529-0.071,0.704C66.129,37.512,66.017,37.549,65.905,37.549z"/><path fill="#1f212b" d="M43,69.828c-0.057,0-0.114-0.01-0.17-0.03C34.514,66.789,28.926,58.833,28.926,50	c0-11.604,9.44-21.044,21.044-21.044c0.276,0,0.5,0.224,0.5,0.5s-0.224,0.5-0.5,0.5c-11.053,0-20.044,8.991-20.044,20.044	c0,8.413,5.322,15.991,13.244,18.858c0.26,0.094,0.395,0.38,0.3,0.64C43.396,69.702,43.204,69.828,43,69.828z"/><path fill="#1f212b" d="M49.97,71.045c-1.321,0-2.646-0.124-3.938-0.369c-0.271-0.052-0.45-0.313-0.398-0.584	c0.052-0.272,0.317-0.449,0.584-0.398c1.23,0.233,2.493,0.352,3.752,0.352c0.276,0,0.5,0.224,0.5,0.5S50.246,71.045,49.97,71.045z"/></svg>